<?xml version="1.0" encoding="UTF-8" standalone="no"?>
<!DOCTYPE svg PUBLIC "-//W3C//DTD SVG 1.1//EN"
 "http://www.w3.org/Graphics/SVG/1.1/DTD/svg11.dtd">
<!-- Generated by graphviz version 12.2.1 (20241206.2353)
 -->
<!-- Title: G Pages: 1 -->
<svg width="783pt" height="129pt"
 viewBox="0.00 0.00 782.70 128.95" xmlns="http://www.w3.org/2000/svg" xmlns:xlink="http://www.w3.org/1999/xlink">
<g id="graph0" class="graph" transform="scale(1 1) rotate(0) translate(21.6 107.35)">
<title>G</title>
<polygon fill="#111111" stroke="none" points="-21.6,21.6 -21.6,-107.35 761.1,-107.35 761.1,21.6 -21.6,21.6"/>
<!-- dist/Components/Animation.js -->
<g id="node1" class="node">
<title>dist/Components/Animation.js</title>
<path fill="none" stroke="#ff6c60" d="M188.08,-23.75C188.08,-23.75 7.92,-23.75 7.92,-23.75 3.96,-23.75 0,-19.79 0,-15.83 0,-15.83 0,-7.92 0,-7.92 0,-3.96 3.96,0 7.92,0 7.92,0 188.08,0 188.08,0 192.04,0 196,-3.96 196,-7.92 196,-7.92 196,-15.83 196,-15.83 196,-19.79 192.04,-23.75 188.08,-23.75"/>
<text text-anchor="middle" x="98" y="-6.45" font-family="Arial" font-size="14.00" fill="#ff6c60">dist/Components/Animation.js</text>
</g>
<!-- dist/Components/Renderers/BarRenderer.js -->
<g id="node2" class="node">
<title>dist/Components/Renderers/BarRenderer.js</title>
<path fill="none" stroke="#ff6c60" d="M511.96,-43.75C511.96,-43.75 249.29,-43.75 249.29,-43.75 245.33,-43.75 241.38,-39.79 241.38,-35.83 241.38,-35.83 241.38,-27.92 241.38,-27.92 241.38,-23.96 245.33,-20 249.29,-20 249.29,-20 511.96,-20 511.96,-20 515.92,-20 519.88,-23.96 519.88,-27.92 519.88,-27.92 519.88,-35.83 519.88,-35.83 519.88,-39.79 515.92,-43.75 511.96,-43.75"/>
<text text-anchor="middle" x="380.62" y="-26.45" font-family="Arial" font-size="14.00" fill="#ff6c60">dist/Components/Renderers/BarRenderer.js</text>
</g>
<!-- dist/Components/Animation.js&#45;&gt;dist/Components/Renderers/BarRenderer.js -->
<g id="edge1" class="edge">
<title>dist/Components/Animation.js&#45;&gt;dist/Components/Renderers/BarRenderer.js</title>
<path fill="none" stroke="#757575" d="M196.36,-18.81C207.17,-19.58 218.35,-20.38 229.61,-21.18"/>
<polygon fill="#757575" stroke="#757575" points="229.16,-24.66 239.38,-21.88 229.66,-17.68 229.16,-24.66"/>
</g>
<!-- dist/Components/Health.js -->
<g id="node5" class="node">
<title>dist/Components/Health.js</title>
<path fill="none" stroke="#ff6c60" d="M731.58,-23.75C731.58,-23.75 573.17,-23.75 573.17,-23.75 569.21,-23.75 565.25,-19.79 565.25,-15.83 565.25,-15.83 565.25,-7.92 565.25,-7.92 565.25,-3.96 569.21,0 573.17,0 573.17,0 731.58,0 731.58,0 735.54,0 739.5,-3.96 739.5,-7.92 739.5,-7.92 739.5,-15.83 739.5,-15.83 739.5,-19.79 735.54,-23.75 731.58,-23.75"/>
<text text-anchor="middle" x="652.38" y="-6.45" font-family="Arial" font-size="14.00" fill="#ff6c60">dist/Components/Health.js</text>
</g>
<!-- dist/Components/Renderers/BarRenderer.js&#45;&gt;dist/Components/Health.js -->
<g id="edge4" class="edge">
<title>dist/Components/Renderers/BarRenderer.js&#45;&gt;dist/Components/Health.js</title>
<path fill="none" stroke="#757575" d="M520.06,-21.61C531.38,-20.77 542.68,-19.93 553.62,-19.12"/>
<polygon fill="#757575" stroke="#757575" points="553.66,-22.63 563.37,-18.4 553.14,-15.65 553.66,-22.63"/>
</g>
<!-- dist/Components/Canon.js -->
<g id="node3" class="node">
<title>dist/Components/Canon.js</title>
<path fill="none" stroke="#ff6c60" d="M177.58,-85.75C177.58,-85.75 18.42,-85.75 18.42,-85.75 14.46,-85.75 10.5,-81.79 10.5,-77.83 10.5,-77.83 10.5,-69.92 10.5,-69.92 10.5,-65.96 14.46,-62 18.42,-62 18.42,-62 177.58,-62 177.58,-62 181.54,-62 185.5,-65.96 185.5,-69.92 185.5,-69.92 185.5,-77.83 185.5,-77.83 185.5,-81.79 181.54,-85.75 177.58,-85.75"/>
<text text-anchor="middle" x="98" y="-68.45" font-family="Arial" font-size="14.00" fill="#ff6c60">dist/Components/Canon.js</text>
</g>
<!-- dist/Components/Renderers/CanonRenderer.js -->
<g id="node4" class="node">
<title>dist/Components/Renderers/CanonRenderer.js</title>
<path fill="none" stroke="#ff6c60" d="M521.33,-85.75C521.33,-85.75 239.92,-85.75 239.92,-85.75 235.96,-85.75 232,-81.79 232,-77.83 232,-77.83 232,-69.92 232,-69.92 232,-65.96 235.96,-62 239.92,-62 239.92,-62 521.33,-62 521.33,-62 525.29,-62 529.25,-65.96 529.25,-69.92 529.25,-69.92 529.25,-77.83 529.25,-77.83 529.25,-81.79 525.29,-85.75 521.33,-85.75"/>
<text text-anchor="middle" x="380.62" y="-68.45" font-family="Arial" font-size="14.00" fill="#ff6c60">dist/Components/Renderers/CanonRenderer.js</text>
</g>
<!-- dist/Components/Canon.js&#45;&gt;dist/Components/Renderers/CanonRenderer.js -->
<g id="edge2" class="edge">
<title>dist/Components/Canon.js&#45;&gt;dist/Components/Renderers/CanonRenderer.js</title>
<path fill="none" stroke="#757575" d="M185.87,-67.58C196.91,-67.38 208.47,-67.25 220.21,-67.18"/>
<polygon fill="#757575" stroke="#757575" points="220.01,-70.68 230,-67.14 219.98,-63.68 220.01,-70.68"/>
</g>
<!-- dist/Components/Renderers/CanonRenderer.js&#45;&gt;dist/Components/Canon.js -->
<g id="edge5" class="edge">
<title>dist/Components/Renderers/CanonRenderer.js&#45;&gt;dist/Components/Canon.js</title>
<path fill="none" stroke="#757575" d="M231.51,-80.62C219.93,-80.59 208.42,-80.5 197.3,-80.35"/>
<polygon fill="#757575" stroke="#757575" points="197.44,-76.85 187.38,-80.19 197.33,-83.85 197.44,-76.85"/>
</g>
<!-- dist/Components/Health.js&#45;&gt;dist/Components/Animation.js -->
<g id="edge3" class="edge">
<title>dist/Components/Health.js&#45;&gt;dist/Components/Animation.js</title>
<path fill="none" stroke="#757575" d="M564.98,-11.08C552.98,-10.99 540.81,-10.92 529.25,-10.88 397.14,-10.33 364.11,-10.38 232,-10.88 224.06,-10.9 215.86,-10.94 207.6,-10.99"/>
<polygon fill="#757575" stroke="#757575" points="207.83,-7.49 197.85,-11.05 207.87,-14.49 207.83,-7.49"/>
</g>
</g>
</svg>
